<svg width="400" height="400" xmlns="http://www.w3.org/2000/svg">
 <g id="Layer_1">
  <title>Layer 1</title>
  <path id="svg_1" d="m287.77175,46.88072c-14.85646,-6.67268 -32.75005,-0.94333 -39.99126,12.85982c-7.21129,13.80315 -0.98744,30.39467 13.86902,37.08122c46.60411,21.03073 78.77067,65.27016 78.74074,116.54296c-0.14961,71.49892 -62.53777,129.34729 -139.63279,129.47215c-77.10997,-0.13873 -139.49814,-57.9871 -139.64775,-129.47215c-0.02992,-51.30055 32.1516,-95.5816 78.80059,-116.57071c14.88638,-6.68655 21.06536,-23.27807 13.86902,-37.08122c-7.21129,-13.7754 -25.07495,-19.54637 -39.96134,-12.85982c-66.60722,29.89526 -112.53807,93.26489 -112.56799,166.51175c0.02992,102.15717 89.30334,184.94832 199.50747,184.97606c110.18917,-0.02775 199.47755,-82.81889 199.49251,-184.97606c-0.02992,-73.21911 -45.90093,-136.54713 -112.47823,-166.484zm-87.01428,136.42227c16.51715,0 29.90742,-12.40202 29.90742,-27.74502l0,-129.48602c0,-15.32912 -13.39027,-27.73115 -29.90742,-27.73115c-16.54708,0 -29.92238,12.4159 -29.92238,27.73115l0,129.47215c0,15.343 13.3753,27.75889 29.92238,27.75889z" stroke-width="0.5" stroke="#000" fill="#000000"/>
 </g>
</svg>