<svg width="202" height="400" xmlns="http://www.w3.org/2000/svg">
 <title>TemperatureIcon</title>
 <g id="Layer_1">
  <title>Layer 1</title>
  <path id="svg_2" d="m152.26669,233.34455l0,-188.88924c0,-24.42647 -22.36184,-44.20531 -49.83836,-44.20531c-27.53599,0 -49.80862,19.77884 -49.80862,44.20531l0,187.39724c-31.31253,15.23684 -52.57412,44.77306 -52.57412,78.70605c0,49.53952 45.2292,89.69136 101,89.69136c55.80053,0 101,-40.15184 101,-89.69136c0.01487,-32.91632 -20.01266,-61.63393 -49.77889,-77.21405zm-51.20624,152.18351c-46.52274,0 -84.39216,-33.64251 -84.39216,-74.99587c0,-27.35765 16.83085,-52.54992 43.9208,-65.74022l8.63845,-4.17231l0,-196.17757c0,-16.25351 14.91285,-29.457 33.2454,-29.457c18.30281,0 33.18593,13.2035 33.18593,29.457l0,197.28666l8.1478,4.27793c26.10864,13.67882 41.7203,37.77521 41.7203,64.52549c-0.02974,41.35335 -37.91403,74.99587 -84.46651,74.99587zm34.31591,-126.80639l-16.3402,-8.54266l0,-128.85293l-33.20079,0l0,128.00791l-17.26203,8.38422c-21.76711,10.62882 -35.31208,30.81696 -35.31208,52.81399c0,33.19359 30.4353,60.22115 67.7992,60.22115c37.39364,0 67.7992,-27.02756 67.7992,-60.22115c0.02974,-21.152 -12.80156,-40.99686 -33.48329,-51.81053z" stroke-width="0.5" stroke="#000" fill="#000000"/>
 </g>
</svg>