<svg width="400" height="400" xmlns="http://www.w3.org/2000/svg">
 <title>VentIcon</title>

 <g id="Layer_1">
  <title>Layer 1</title>
  <g stroke="null" id="svg_46">
   <ellipse stroke="#000" ry="17.84746" rx="16.90555" id="svg_28" cy="199.22235" cx="204.29386" stroke-dasharray="5,2,2,2,2,2" stroke-width="0.01" fill="#000000"/>
   <g stroke="null" id="svg_34">
    <path stroke="#000" id="svg_23" d="m203.75641,111.80162c19.51622,-58.2969 95.98139,0 0,74.95316c-95.98139,-74.95316 -19.51622,-133.25006 0,-74.95316z" stroke-width="4.01" fill="#000000"/>
    <rect stroke="#000" id="svg_26" height="29.99678" width="53.51932" y="88.34261" x="177.36228" stroke-width="4.01" fill="#000000"/>
   </g>
   <g stroke="null" transform="matrix(0 0.713899 -0.676222 0 398.04 -5.0493)" id="svg_37">
    <path stroke="#000" id="svg_35" d="m286.32387,164.32425c28.86066,-81.65993 141.93766,0 0,104.99134c-141.93767,-104.99134 -28.86066,-186.65127 0,-104.99134z" stroke-width="4.01" fill="#000000"/>
    <rect stroke="#000" id="svg_36" height="42.01827" width="79.14459" y="131.46383" x="247.29212" stroke-width="4.01" fill="#000000"/>
   </g>
   <g stroke="null" transform="matrix(-0.676222 0 0 -0.713899 341.248 467.291)" id="svg_40">
    <path stroke="#000" id="svg_38" d="m201.26414,251.88556c28.86066,-81.65993 141.93767,0 0,104.99134c-141.93767,-104.99134 -28.86066,-186.65127 0,-104.99134z" stroke-width="4.01" fill="#000000"/>
    <rect stroke="#000" id="svg_39" height="42.01827" width="79.14459" y="219.02514" x="162.23238" stroke-width="4.01" fill="#000000"/>
   </g>
   <g stroke="null" transform="matrix(0 -0.713899 0.676222 0 13.2315 282.266)" id="svg_43">
    <path stroke="#000" id="svg_41" d="m116.88992,163.56953c28.86066,-81.65993 141.93766,0 0,104.99134c-141.93767,-104.99134 -28.86066,-186.65127 0,-104.99134z" stroke-width="4.01" fill="#000000"/>
    <rect stroke="#000" id="svg_42" height="42.01827" width="79.14459" y="130.70912" x="77.85816" stroke-width="4.01" fill="#000000"/>
   </g>
   <ellipse stroke="#000" ry="28.55594" rx="27.04888" id="svg_44" cy="199.22235" cx="204.29386" stroke-dasharray="5,2,2,2,2,2" stroke-width="0.01" fill="#ffffff"/>
   <ellipse stroke="#000" ry="17.84746" rx="16.90555" id="svg_45" cy="199.22235" cx="204.29386" stroke-dasharray="5,2,2,2,2,2" stroke-width="0.01" fill="#000000"/>
  </g>
  <path id="svg_47" d="m199.67244,51.86076c16.76479,0.02008 32.7805,2.77002 47.94813,7.3641l-12.00408,19.66842l85.20952,0l-21.30783,-34.95929l-21.29156,-34.94884l-11.20805,18.4158c-21.00566,-7.27542 -43.65057,-11.34715 -67.33085,-11.34715c-108.9986,0 -197.34539,83.7009 -197.34539,186.96073c0,42.85622 15.38603,82.23171 40.99177,113.77949l30.00739,-21.82666c-20.70921,-25.49494 -33.16072,-57.30908 -33.22828,-91.94251c0.15083,-83.48421 71.44654,-151.03608 159.55923,-151.16408l0.00002,0zm156.37442,37.41371l-30.00732,21.83711c20.70399,25.48524 33.15557,57.27933 33.21253,91.92304c-0.15085,83.48352 -71.44654,151.02573 -159.56435,151.1633c-15.61499,-0.01912 -30.55374,-2.42448 -44.79514,-6.44712l11.29624,-18.50505l-85.20914,0l21.29207,34.93994l21.30743,34.98813l11.87921,-19.52983c20.14705,6.64443 41.70939,10.35133 64.22933,10.36097c109.01433,-0.01924 197.34596,-83.72022 197.37157,-186.98012c-0.02561,-42.85613 -15.42258,-82.222 -41.01243,-113.75038l0,-0.00001z" stroke-dasharray="5,2,2,2,2,2" stroke-width="0.01" stroke="#000" fill="#000000"/>
 </g>
</svg>